<svg version="1.0" xmlns="http://www.w3.org/2000/svg"
 width="64.000000pt" height="64.000000pt" viewBox="0 0 64.000000 64.000000"
 preserveAspectRatio="xMidYMid meet">

<g transform="translate(0.000000,64.000000) scale(0.100000,-0.100000)"
fill="white" stroke="none">
<path d="M223 622 c-109 -39 -178 -112 -210 -221 -19 -67 -12 -154 18 -212
l20 -41 -27 -64 c-36 -86 -27 -95 61 -60 l66 26 42 -22 c64 -33 183 -32 258 3
71 34 125 87 158 158 54 115 27 264 -64 356 -82 81 -219 114 -322 77z m222
-50 c47 -24 106 -83 130 -132 27 -52 31 -147 10 -210 -21 -62 -80 -132 -140
-163 -59 -32 -192 -31 -253 1 -42 23 -45 23 -84 7 -22 -9 -42 -14 -45 -12 -2
3 3 23 12 45 16 39 16 42 -7 84 -32 61 -33 194 -1 253 30 57 91 112 149 135
64 26 171 23 229 -8z"/>
<path d="M282 548 c-37 -37 12 -113 57 -88 35 18 45 48 26 76 -17 26 -62 33
-83 12z m51 -49 c-17 -17 -37 -1 -22 17 8 10 15 12 23 4 7 -7 7 -13 -1 -21z"/>
<path d="M243 413 c-19 -7 -17 -102 2 -109 9 -4 15 -19 15 -39 0 -20 -6 -35
-15 -39 -22 -8 -21 -102 1 -110 34 -13 142 -6 158 10 22 22 20 70 -4 94 -17
17 -20 33 -20 100 0 68 -3 81 -19 90 -20 10 -96 13 -118 3z m97 -124 c0 -82 2
-91 20 -96 11 -3 20 -14 20 -24 0 -16 -8 -19 -55 -19 -47 0 -55 3 -55 19 0 10
7 21 15 25 11 4 15 22 15 71 0 49 -4 67 -15 71 -8 4 -15 15 -15 25 0 15 7 19
35 19 l35 0 0 -91z"/>
</g>
</svg>
