<svg version="1.0" xmlns="http://www.w3.org/2000/svg"
 width="64.000000pt" height="64.000000pt" viewBox="0 0 64.000000 64.000000"
 preserveAspectRatio="xMidYMid meet">

<g transform="translate(0.000000,64.000000) scale(0.100000,-0.100000)"
fill="white" stroke="none">
<path d="M220 613 c-76 -41 -113 -96 -118 -178 -3 -40 1 -78 9 -98 24 -60 201
-338 213 -334 12 4 163 247 197 317 32 67 24 164 -18 222 -40 56 -118 98 -183
98 -33 0 -64 -9 -100 -27z m173 -27 c43 -18 94 -77 107 -125 16 -60 0 -109
-81 -244 -106 -179 -93 -167 -125 -116 -96 152 -152 252 -158 283 -14 74 39
171 109 202 39 17 107 17 148 0z"/>
<path d="M300 523 c-39 -12 -63 -30 -76 -55 -39 -76 12 -161 96 -161 84 0 135
85 96 161 -19 38 -81 67 -116 55z m68 -53 c47 -44 15 -130 -48 -130 -38 0 -70
34 -70 75 0 41 32 75 70 75 14 0 36 -9 48 -20z"/>
</g>
</svg>
