<svg version="1.0" xmlns="http://www.w3.org/2000/svg"
 width="64.000000pt" height="64.000000pt" viewBox="0 0 64.000000 64.000000"
 preserveAspectRatio="xMidYMid meet">

<g transform="translate(0.000000,64.000000) scale(0.100000,-0.100000)"
fill="white" stroke="none">
<path d="M163 524 c-76 -64 -144 -124 -151 -132 -26 -33 -3 -84 39 -87 l24 -2
3 -151 3 -152 238 0 c209 0 240 2 245 16 3 9 6 76 6 150 0 112 2 134 15 134
22 0 55 37 55 61 0 11 -16 35 -35 52 -33 29 -35 34 -35 96 0 86 -6 93 -66 89
-42 -3 -49 -6 -52 -25 -3 -22 -6 -20 -59 22 -30 25 -63 45 -73 45 -11 0 -81
-52 -157 -116z m304 -40 c120 -104 149 -139 115 -139 -6 0 -65 46 -131 103
-66 56 -124 102 -130 102 -6 0 -66 -46 -132 -102 -119 -102 -139 -114 -146
-92 -4 13 260 244 278 244 6 0 72 -52 146 -116z m63 41 c0 -37 -8 -43 -28 -23
-20 20 -15 58 8 58 16 0 20 -7 20 -35z m-77 -129 l77 -68 0 -144 0 -144 -50 0
-50 0 0 89 c0 104 3 101 -110 101 -113 0 -110 3 -110 -101 l0 -89 -50 0 -50 0
0 145 0 144 106 91 106 92 27 -24 c14 -13 61 -54 104 -92z m-53 -281 l0 -75
-80 0 -80 0 0 68 c0 38 3 72 7 75 3 4 39 7 80 7 l73 0 0 -75z"/>
<path d="M258 409 c-14 -8 -18 -23 -18 -69 0 -68 12 -80 80 -80 68 0 80 12 80
80 0 48 -4 61 -19 70 -25 13 -101 13 -123 -1z m102 -69 l0 -40 -40 0 -40 0 0
40 0 40 40 0 40 0 0 -40z"/>
<path d="M324 139 c-10 -17 13 -36 27 -22 12 12 4 33 -11 33 -5 0 -12 -5 -16
-11z"/>
</g>
</svg>
