<svg version="1.0" xmlns="http://www.w3.org/2000/svg"
 width="64.000000pt" height="64.000000pt" viewBox="0 0 64.000000 64.000000"
 preserveAspectRatio="xMidYMid meet">

<g transform="translate(0.000000,64.000000) scale(0.100000,-0.100000)"
fill="white" stroke="none">
<path d="M17 622 c-15 -16 -17 -52 -17 -304 0 -263 1 -286 18 -301 16 -15 47
-17 225 -17 256 0 247 -5 247 132 l0 92 75 77 c77 78 88 104 59 133 -25 26
-65 19 -101 -16 l-33 -32 0 73 c0 81 -13 115 -60 155 -32 26 -32 26 -214 26
-164 0 -185 -2 -199 -18z m325 -74 l3 -53 53 -3 52 -3 0 -72 c0 -71 0 -72 -44
-117 -43 -43 -80 -129 -64 -146 4 -3 28 1 54 10 26 9 49 16 51 16 2 0 3 -30 1
-67 l-3 -68 -202 -3 -203 -2 0 280 0 280 149 0 150 0 3 -52z m78 17 l34 -35
-37 0 c-36 0 -37 1 -37 35 0 19 1 35 3 35 2 0 18 -16 37 -35z m180 -170 c0
-21 -19 -28 -36 -14 -14 12 -14 14 2 26 19 14 34 9 34 -12z m-54 -46 c3 -6
-13 -31 -37 -55 -38 -39 -45 -42 -58 -29 -13 13 -11 19 24 55 40 41 59 49 71
29z m-116 -129 c0 -4 -9 -10 -20 -13 -21 -5 -24 1 -14 27 5 13 9 14 20 5 8 -6
14 -15 14 -19z"/>
<path d="M80 436 c0 -22 23 -26 145 -26 122 0 145 4 145 26 0 11 -28 14 -145
14 -117 0 -145 -3 -145 -14z"/>
<path d="M87 374 c-4 -4 -7 -13 -7 -21 0 -11 22 -13 108 -11 87 2 107 6 107
18 0 12 -19 16 -101 18 -55 1 -103 0 -107 -4z"/>
<path d="M80 286 c0 -21 23 -26 113 -26 84 0 115 9 103 29 -5 7 -46 11 -112
11 -82 0 -104 -3 -104 -14z"/>
<path d="M87 224 c-4 -4 -7 -13 -7 -21 0 -11 22 -13 108 -11 87 2 107 6 107
18 0 12 -19 16 -101 18 -55 1 -103 0 -107 -4z"/>
<path d="M230 96 c0 -18 22 -26 70 -26 48 0 70 8 70 26 0 11 -17 14 -70 14
-53 0 -70 -3 -70 -14z"/>
</g>
</svg>
