<svg version="1.0" xmlns="http://www.w3.org/2000/svg"
 width="64.000000pt" height="64.000000pt" viewBox="0 0 64.000000 64.000000"
 preserveAspectRatio="xMidYMid meet">

<g transform="translate(0.000000,64.000000) scale(0.100000,-0.100000)"
fill="white" stroke="none">
<path d="M17 582 c-14 -15 -17 -41 -17 -146 0 -70 4 -136 10 -146 5 -10 21
-21 35 -24 16 -4 25 -13 25 -25 0 -27 10 -51 22 -51 5 0 26 11 46 25 20 14 40
25 44 25 4 0 8 -24 10 -52 4 -69 21 -78 148 -78 92 0 97 -1 147 -35 29 -19 56
-35 62 -35 11 0 21 24 21 51 0 12 9 21 25 25 14 3 30 14 35 24 6 10 10 77 10
148 0 160 -2 162 -113 162 l-77 0 0 58 c0 92 0 92 -227 92 -171 0 -192 -2
-206 -18z m391 -149 l-3 -128 -104 -3 c-90 -2 -108 -6 -139 -27 -46 -31 -52
-31 -52 -1 0 21 -6 25 -32 28 l-33 3 -3 128 -3 127 186 0 186 0 -3 -127z m190
-150 l-3 -128 -32 -3 c-27 -3 -33 -7 -33 -28 0 -30 -6 -30 -52 1 -31 21 -49
25 -139 27 l-104 3 -3 53 -3 52 83 0 c47 0 94 6 108 13 22 11 25 20 28 75 l3
62 75 0 75 0 -3 -127z"/>
<path d="M85 479 c-15 -24 17 -29 151 -27 116 3 139 6 139 18 0 12 -24 15
-142 18 -96 2 -144 -1 -148 -9z"/>
<path d="M80 395 c0 -12 17 -15 90 -15 73 0 90 3 90 15 0 12 -17 15 -90 15
-73 0 -90 -3 -90 -15z"/>
</g>
</svg>
